<svg xmlns="http://www.w3.org/2000/svg" viewBox="0 0 50 50"><g id="Leaderboard_button_-_up" data-name="Leaderboard button - up"><g id="leaderboard-button"><rect id="shadow" x="8" y="8.5" width="30" height="30" style="opacity:0.48"/><g id="button"><g style="isolation:isolate"><polygon points="46.91 14.436 46.212 44.218 16.766 44.218 17.464 14.436 46.91 14.436" style="fill:#c51857"/><polygon points="16.766 44.218 11.085 40.562 11.783 10.78 17.464 14.436 16.766 44.218" style="fill:#6d0d30"/><polygon points="17.464 14.436 11.783 10.78 41.228 10.78 46.91 14.436 17.464 14.436" style="fill:#83103a"/></g><path id="trophy" d="M40.39724,23.69107H37.59943v-.84761a.68.68,0,0,0-.6782-.6782H27.42641a.68.68,0,0,0-.6782.6782v.84761h-2.7978a.595.595,0,0,0-.5932.5932h0a6.72589,6.72589,0,0,0,.95792,3.83168,3.45131,3.45131,0,0,0,2.38666,1.70847.34783.34783,0,0,1,.26284.208,4.607,4.607,0,0,0,2.166,2.21244,8.17353,8.17353,0,0,0,2.19134.91572.34.34,0,0,1,.26284.33036v3.42477a.34.34,0,0,1-.3388.3394H28.46512a.60766.60766,0,0,0-.61008.56366.59441.59441,0,0,0,.56476.62264l.02844.0007H35.891a.60767.60767,0,0,0,.61068-.56366.59441.59441,0,0,0-.56476-.62264l-.02844-.0007H33.11064a.34.34,0,0,1-.33879-.3388V33.49574a.34.34,0,0,1,.26284-.33036,8.37252,8.37252,0,0,0,2.19134-.91572,4.60694,4.60694,0,0,0,2.166-2.21244.33941.33941,0,0,1,.26284-.208,3.45131,3.45131,0,0,0,2.38667-1.70847,6.82054,6.82054,0,0,0,.94948-3.8359h0A.595.595,0,0,0,40.39724,23.69107Zm-13.649,4.68832a.17059.17059,0,0,1-.22908.161,2.47163,2.47163,0,0,1-1.29732-1.225,4.461,4.461,0,0,1-.63962-2.06836.34.34,0,0,1,.30983-.36771q.01476-.00126.02957-.00123h1.48782a.34.34,0,0,1,.3388.3394Zm12.377-1.064a2.47163,2.47163,0,0,1-1.29732,1.225.17059.17059,0,0,1-.22908-.161V25.21747a.34.34,0,0,1,.34-.3394H39.426a.34.34,0,0,1,.34064.33937q0,.0148-.00123.02957A4.5153,4.5153,0,0,1,39.12523,27.31537Z" style="fill:#c7b299;stroke:#c7b299;stroke-miterlimit:10;stroke-width:0.75px"/></g></g></g></svg>
