<svg xmlns="http://www.w3.org/2000/svg" viewBox="0 0 50 50"><g id="Menu_button_-_up" data-name="Menu button - up"><g id="menu-button"><rect id="shadow" x="8" y="8.5" width="30" height="30" style="opacity:0.48"/><g id="button"><g style="isolation:isolate"><polygon points="46.91 14.436 46.212 44.218 16.766 44.218 17.464 14.436 46.91 14.436" style="fill:#c51857"/><polygon points="16.766 44.218 11.085 40.562 11.783 10.78 17.464 14.436 16.766 44.218" style="fill:#6d0d30"/><polygon points="17.464 14.436 11.783 10.78 41.228 10.78 46.91 14.436 17.464 14.436" style="fill:#83103a"/></g><g id="menu-outline"><path d="M23.96057,27.74138H40.477c.53824,0,.97457.616.97457,1.37586v.14483c0,.75987-.43633,1.37586-.97457,1.37586H23.96057c-.53824,0-.97457-.616-.97457-1.37586v-.14483C22.986,28.35737,23.42233,27.74138,23.96057,27.74138Z" style="fill:#c7b299"/><path d="M23.96057,34.98276H40.477c.53824,0,.97457.616.97457,1.37586v.14483c0,.75986-.43633,1.37586-.97457,1.37586H23.96057c-.53824,0-.97457-.616-.97457-1.37586v-.14483C22.986,35.59876,23.42233,34.98276,23.96057,34.98276Z" style="fill:#c7b299"/><path d="M23.96057,20.5H40.477c.53824,0,.97457.616.97457,1.37586v.14483c0,.75987-.43633,1.37586-.97457,1.37586H23.96057c-.53824,0-.97457-.616-.97457-1.37586v-.14483C22.986,21.116,23.42233,20.5,23.96057,20.5Z" style="fill:#c7b299"/></g></g></g></g></svg>
